HIERARCHY
ROOT Torso
{
    OFFSET 0 0 0
    CHANNELS 6 Xposition Yposition Zposition Zrotation Yrotation Xrotation
    JOINT LHip1 
    {   
        OFFSET 0.01 -0.06 0
        CHANNELS 3 Zrotation Yrotation Xrotation
        JOINT LHip2
        {
            OFFSET 0 -0.055 -0.055
            CHANNELS 3 Zrotation Yrotation Xrotation
            JOINT LHip3
            {
                OFFSET -0.01 0 0
                CHANNELS 3 Zrotation Yrotation Xrotation
                JOINT LThigh
                {
                    OFFSET 0 0 0.01
                    CHANNELS 3 Zrotation Yrotation Xrotation
                    JOINT LLeg
                    {
                        OFFSET -0.014 -0.120 -0.01
                        CHANNELS 3 Zrotation Yrotation Xrotation
                        JOINT LFoot
                        {
                            OFFSET 0.01 -0.1 0
                            CHANNELS 3 Zrotation Yrotation Xrotation
                            End Site
                            {
                                OFFSET -0.090 -0.035 0
                            }
                        }
                    }
                }
            }
        }
    }
    JOINT RHip1 
    {   
        OFFSET 0.01 -0.06 0
        CHANNELS 3 Zrotation Yrotation Xrotation
        JOINT RHip2
        {
            OFFSET 0 -0.055 0.055
            CHANNELS 3 Zrotation Yrotation Xrotation
            JOINT RHip3
            {
                OFFSET -0.01 0 0
                CHANNELS 3 Zrotation Yrotation Xrotation
                JOINT RThigh
                {
                    OFFSET 0 0 0.01
                    CHANNELS 3 Zrotation Yrotation Xrotation
                    JOINT RLeg
                    {
                        OFFSET -0.014 -0.120 -0.01
                        CHANNELS 3 Zrotation Yrotation Xrotation
                        JOINT RFoot
                        {
                            OFFSET 0.01 -0.1 0
                            CHANNELS 3 Zrotation Yrotation Xrotation
                            End Site
                            {
                                OFFSET -0.090 -0.035 0
                            }
                        }
                    }
                }
            }
        }
    }
    JOINT Neck
    {
        OFFSET 0 0.04 0
        CHANNELS 3 Zrotation Yrotation Xrotation
        JOINT Head
        {
            OFFSET 0 0.1 0
            CHANNELS 3 Zrotation Yrotation Xrotation
            End Site 
            {
                OFFSET 0 0.07 0
            }
        }
    }
    JOINT LUpperarm
    {
        OFFSET 0 0.075 -0.098
        CHANNELS 3 Zrotation Yrotation Xrotation
        JOINT LLowerarm
        {
            OFFSET -0.09 0.009 0
            CHANNELS 3 Zrotation Yrotation Xrotation
            End Site
            {
                OFFSET -0.105 0 0
            }
        }
    }
    JOINT RUpperarm
    {
        OFFSET 0 0.075 0.098
        CHANNELS 3 Zrotation Yrotation Xrotation
        JOINT RLowerarm
        {
            OFFSET -0.09 0.009 0
            CHANNELS 3 Zrotation Yrotation Xrotation
            End Site
            {
                OFFSET -0.105 0 0
            }
        }
    }
}
MOTION
Frames: 50
Frame Time: 0.02
0 0 0 0 0 0 0 0.0 0 0 -0.0 0 -0.0 0 0 0 0 0 -0.0 0 0 -0.0 -0.0 0 0 0.0 0 0 0.0 0 -0.0 0 0 0 0 0 -0.0 0 0 -0.0 0.0 0 0 -0.0 0 -0.0 0 0 0.0 0 -0.0 0 0.0 0.0 0.0 0 0.0 0 0.0 0.0
0 0 0 0 0 0 0 0.0 0 0 -0.0 0 -0.0 0 0 0 0 0 -0.0 0 0 -0.0 -0.0 0 0 0.0 0 0 -0.0 0 -0.0 0 0 0 0 0 -0.0 0 0 -0.0 -0.0 0 0 -0.0 0 -0.0 0 0 0.0 0 -0.0 0 0.0 0.0 0.0 0 0.0 0 0.0 -0.0
0 0 0 0 0 0 0 0.0 0 0 -0.0 0 0.23 0 0 0 0 0 -0.34 0 0 0.11 -0.0 0 0 0.0 0 0 -0.0 0 0.23 0 0 0 0 0 -0.34 0 0 0.11 0.0 0 0 0.0 0 0.0 0 0 0.0 0 0.0 0 0.0 0.0 0.0 0 -0.0 0 0.0 0.0
0 0 0 0 0 0 0 0.0 0 0 0.0 0 0.46 0 0 0 0 0 -0.69 0 0 0.23 -0.0 0 0 0.0 0 0 -0.0 0 0.46 0 0 0 0 0 -0.69 0 0 0.23 0.0 0 0 0.0 0 0.0 0 0 0.0 0 0.0 0 0.0 0.0 0.0 0 -0.0 0 0.0 0.0
0 0 0 0 0 0 0 0.0 0 0 0.0 0 0.69 0 0 0 0 0 -1.03 0 0 0.34 -0.0 0 0 0.0 0 0 -0.0 0 0.69 0 0 0 0 0 -1.03 0 0 0.34 -0.0 0 0 0.0 0 0.0 0 0 0.0 0 0.0 0 0.0 0.0 0.0 0 -0.0 0 0.0 0.0
0 0 0 0 0 0 0 0.0 0 0 0.0 0 0.92 0 0 0 0 0 -1.38 0 0 0.46 -0.0 0 0 0.0 0 0 -0.0 0 0.92 0 0 0 0 0 -1.38 0 0 0.46 0.0 0 0 0.0 0 0.0 0 0 0.0 0 0.0 0 0.0 0.0 0.0 0 -0.0 0 0.0 0.0
0 0 0 0 0 0 0 0.0 0 0 -0.0 0 1.15 0 0 0 0 0 -1.72 0 0 0.57 -0.0 0 0 0.0 0 0 -0.0 0 1.15 0 0 0 0 0 -1.72 0 0 0.57 0.0 0 0 0.0 0 0.0 0 0 0.0 0 0.0 0 -0.0 0.0 0.0 0 -0.0 0 -0.0 0.0
0 0 0 0 0 0 0 0.0 0 0 -0.0 0 1.38 0 0 0 0 0 -2.06 0 0 0.69 -0.0 0 0 0.0 0 0 -0.0 0 1.38 0 0 0 0 0 -2.06 0 0 0.69 0.0 0 0 0.0 0 0.0 0 0 0.0 0 0.0 0 -0.0 0.0 0.0 0 -0.0 0 -0.0 0.0
0 0 0 0 0 0 0 0.0 0 0 -0.0 0 1.6 0 0 0 0 0 -2.41 0 0 0.8 -0.0 0 0 0.0 0 0 -0.0 0 1.6 0 0 0 0 0 -2.41 0 0 0.8 -0.0 0 0 0.0 0 0.0 0 0 0.0 0 0.0 0 -0.0 0.0 0.0 0 -0.0 0 -0.0 0.0
0 0 0 0 0 0 0 0.0 0 0 -0.0 0 1.83 0 0 0 0 0 -2.75 0 0 0.92 -0.0 0 0 0.0 0 0 -0.0 0 1.83 0 0 0 0 0 -2.75 0 0 0.92 -0.0 0 0 0.0 0 0.0 0 0 0.0 0 -0.0 0 -0.0 0.0 0.0 0 0.0 0 -0.0 0.0
0 0 0 0 0 0 0 0.0 0 0 0.0 0 2.06 0 0 0 0 0 -3.09 0 0 1.03 -0.0 0 0 0.0 0 0 -0.0 0 2.06 0 0 0 0 0 -3.09 0 0 1.03 -0.0 0 0 0.0 0 0.0 0 0 0.0 0 -0.0 0 0.0 0.0 0.0 0 0.0 0 -0.0 0.0
0 0 0 0 0 0 0 0.0 0 0 0.0 0 2.29 0 0 0 0 0 -3.44 0 0 1.15 -0.0 0 0 0.0 0 0 -0.0 0 2.29 0 0 0 0 0 -3.44 0 0 1.15 -0.0 0 0 0.0 0 0.0 0 0 0.0 0 -0.0 0 0.0 0.0 0.0 0 0.0 0 -0.0 0.0
0 0 0 0 0 0 0 0.0 0 0 0.0 0 2.52 0 0 0 0 0 -3.78 0 0 1.26 -0.0 0 0 0.0 0 0 -0.0 0 2.52 0 0 0 0 0 -3.78 0 0 1.26 0.0 0 0 0.0 0 0.0 0 0 0.0 0 -0.0 0 -0.0 0.0 0.0 0 0.0 0 -0.0 0.0
0 0 0 0 0 0 0 0.0 0 0 0.0 0 2.75 0 0 0 0 0 -4.13 0 0 1.38 -0.0 0 0 0.0 0 0 -0.0 0 2.75 0 0 0 0 0 -4.13 0 0 1.38 0.0 0 0 0.0 0 0.0 0 0 0.0 0 -0.0 0 -0.0 0.0 0.0 0 0.0 0 -0.0 0.0
0 0 0 0 0 0 0 0.0 0 0 0.0 0 2.98 0 0 0 0 0 -4.47 0 0 1.49 -0.0 0 0 0.0 0 0 -0.0 0 2.98 0 0 0 0 0 -4.47 0 0 1.49 0.0 0 0 0.0 0 0.0 0 0 0.0 0 -0.0 0 -0.0 0.0 0.0 0 0.0 0 -0.0 0.0
0 0 0 0 0 0 0 0.0 0 0 -0.0 0 3.21 0 0 0 0 0 -4.81 0 0 1.6 -0.0 0 0 0.0 0 0 -0.0 0 3.21 0 0 0 0 0 -4.81 0 0 1.6 0.0 0 0 0.0 0 0.0 0 0 0.0 0 -0.0 0 -0.0 0.0 0.0 0 0.0 0 -0.0 0.0
0 0 0 0 0 0 0 0.0 0 0 0.0 0 3.44 0 0 0 0 0 -5.16 0 0 1.72 -0.0 0 0 0.0 0 0 -0.0 0 3.44 0 0 0 0 0 -5.16 0 0 1.72 0.0 0 0 0.0 0 0.0 0 0 0.0 0 -0.0 0 -0.0 0.0 0.0 0 0.0 0 -0.0 0.0
0 0 0 0 0 0 0 0.0 0 0 0.0 0 3.67 0 0 0 0 0 -5.5 0 0 1.83 -0.0 0 0 0.0 0 0 -0.0 0 3.67 0 0 0 0 0 -5.5 0 0 1.83 0.0 0 0 0.0 0 0.0 0 0 0.0 0 -0.0 0 -0.0 0.0 0.0 0 0.0 0 -0.0 0.0
0 0 0 0 0 0 0 0.0 0 0 0.0 0 3.9 0 0 0 0 0 -5.84 0 0 1.95 -0.0 0 0 0.0 0 0 -0.0 0 3.9 0 0 0 0 0 -5.84 0 0 1.95 0.0 0 0 0.0 0 0.0 0 0 0.0 0 -0.0 0 -0.0 0.0 0.0 0 0.0 0 -0.0 0.0
0 0 0 0 0 0 0 0.0 0 0 0.0 0 4.13 0 0 0 0 0 -6.19 0 0 2.06 -0.0 0 0 0.0 0 0 -0.0 0 4.13 0 0 0 0 0 -6.19 0 0 2.06 0.0 0 0 0.0 0 0.0 0 0 0.0 0 -0.0 0 -0.0 0.0 0.0 0 0.0 0 -0.0 0.0
0 0 0 0 0 0 0 0.0 0 0 0.0 0 4.35 0 0 0 0 0 -6.53 0 0 2.18 -0.0 0 0 0.0 0 0 -0.0 0 4.35 0 0 0 0 0 -6.53 0 0 2.18 0.0 0 0 0.0 0 0.0 0 0 0.0 0 -0.0 0 -0.0 0.0 0.0 0 0.0 0 -0.0 0.0
0 0 0 0 0 0 0 0.0 0 0 0.0 0 4.58 0 0 0 0 0 -6.88 0 0 2.29 -0.0 0 0 0.0 0 0 -0.0 0 4.58 0 0 0 0 0 -6.88 0 0 2.29 0.0 0 0 0.0 0 0.0 0 0 0.0 0 -0.0 0 -0.0 0.0 0.0 0 0.0 0 -0.0 0.0
0 0 0 0 0 0 0 -0.0 0 0 -0.0 0 7.56 0 0 0 0 0 -7.22 0 0 2.41 0.0 0 0 -0.0 0 0 0.0 0 7.56 0 0 0 0 0 -7.22 0 0 2.41 -0.0 0 0 0.0 0 0.0 0 0 -0.0 0 -0.0 0 0.0 0.0 -0.0 0 0.0 0 0.0 -0.0
0 0 0 0 0 0 0 -0.0 0 0 -0.0 0 7.79 0 0 0 0 0 -7.56 0 0 2.52 0.0 0 0 -0.0 0 0 0.0 0 7.79 0 0 0 0 0 -7.56 0 0 2.52 -0.0 0 0 0.0 0 0.0 0 0 -0.0 0 -0.0 0 0.0 0.0 -0.0 0 0.0 0 0.0 -0.0
0 0 0 0 0 0 0 -0.0 0 0 -0.0 0 8.02 0 0 0 0 0 -7.91 0 0 2.64 0.0 0 0 -0.0 0 0 0.0 0 8.02 0 0 0 0 0 -7.91 0 0 2.64 -0.0 0 0 0.0 0 0.0 0 0 -0.0 0 -0.0 0 0.0 0.0 -0.0 0 0.0 0 0.0 -0.0
0 0 0 0 0 0 0 -0.0 0 0 -0.0 0 8.25 0 0 0 0 0 -8.25 0 0 2.75 0.0 0 0 -0.0 0 0 0.0 0 8.25 0 0 0 0 0 -8.25 0 0 2.75 -0.0 0 0 0.0 0 0.0 0 0 -0.0 0 -0.0 0 0.0 0.0 -0.0 0 0.0 0 0.0 -0.0
0 0 0 0 0 0 0 -0.0 0 0 0.0 0 8.48 0 0 0 0 0 -8.59 0 0 2.86 0.0 0 0 -0.0 0 0 0.0 0 8.48 0 0 0 0 0 -8.59 0 0 2.86 -0.0 0 0 0.0 0 0.0 0 0 -0.0 0 -0.0 0 0.0 0.0 -0.0 0 0.0 0 0.0 -0.0
0 0 0 0 0 0 0 -0.0 0 0 0.0 0 8.71 0 0 0 0 0 -8.94 0 0 2.98 0.0 0 0 -0.0 0 0 0.0 0 8.71 0 0 0 0 0 -8.94 0 0 2.98 -0.0 0 0 0.0 0 0.0 0 0 -0.0 0 -0.0 0 0.0 0.0 -0.0 0 0.0 0 0.0 -0.0
0 0 0 0 0 0 0 -0.0 0 0 0.0 0 8.93 0 0 0 0 0 -9.28 0 0 3.09 0.0 0 0 -0.0 0 0 0.0 0 8.93 0 0 0 0 0 -9.28 0 0 3.09 -0.0 0 0 0.0 0 0.0 0 0 -0.0 0 -0.0 0 0.0 0.0 -0.0 0 0.0 0 0.0 -0.0
0 0 0 0 0 0 0 -0.0 0 0 0.0 0 9.16 0 0 0 0 0 -9.63 0 0 3.21 0.0 0 0 -0.0 0 0 0.0 0 9.16 0 0 0 0 0 -9.63 0 0 3.21 -0.0 0 0 0.0 0 0.0 0 0 -0.0 0 -0.0 0 0.0 0.0 -0.0 0 0.0 0 0.0 -0.0
0 0 0 0 0 0 0 -0.0 0 0 0.0 0 9.39 0 0 0 0 0 -9.97 0 0 3.32 0.0 0 0 -0.0 0 0 0.0 0 9.39 0 0 0 0 0 -9.97 0 0 3.32 -0.0 0 0 0.0 0 0.0 0 0 -0.0 0 -0.0 0 0.0 0.0 -0.0 0 0.0 0 0.0 -0.0
0 0 0 0 0 0 0 -0.0 0 0 0.0 0 9.62 0 0 0 0 0 -10.31 0 0 3.44 0.0 0 0 -0.0 0 0 0.0 0 9.62 0 0 0 0 0 -10.31 0 0 3.44 -0.0 0 0 0.0 0 0.0 0 0 -0.0 0 -0.0 0 0.0 0.0 -0.0 0 0.0 0 0.0 -0.0
0 0 0 0 0 0 0 -0.0 0 0 0.0 0 9.85 0 0 0 0 0 -10.66 0 0 3.55 0.0 0 0 -0.0 0 0 0.0 0 9.85 0 0 0 0 0 -10.66 0 0 3.55 -0.0 0 0 0.0 0 0.0 0 0 -0.0 0 -0.0 0 0.0 0.0 -0.0 0 0.0 0 0.0 -0.0
0 0 0 0 0 0 0 -0.0 0 0 0.0 0 10.08 0 0 0 0 0 -11.0 0 0 3.67 0.0 0 0 -0.0 0 0 0.0 0 10.08 0 0 0 0 0 -11.0 0 0 3.67 -0.0 0 0 0.0 0 0.0 0 0 -0.0 0 -0.0 0 0.0 0.0 -0.0 0 0.0 0 0.0 -0.0
0 0 0 0 0 0 0 -0.0 0 0 0.0 0 10.31 0 0 0 0 0 -11.34 0 0 3.78 0.0 0 0 -0.0 0 0 0.0 0 10.31 0 0 0 0 0 -11.34 0 0 3.78 -0.0 0 0 0.0 0 0.0 0 0 -0.0 0 -0.0 0 0.0 0.0 -0.0 0 0.0 0 0.0 -0.0
0 0 0 0 0 0 0 -0.0 0 0 0.0 0 10.54 0 0 0 0 0 -11.69 0 0 3.9 0.0 0 0 -0.0 0 0 0.0 0 10.54 0 0 0 0 0 -11.69 0 0 3.9 -0.0 0 0 0.0 0 0.0 0 0 -0.0 0 -0.0 0 0.0 0.0 -0.0 0 0.0 0 0.0 -0.0
0 0 0 0 0 0 0 -0.0 0 0 0.0 0 10.77 0 0 0 0 0 -12.03 0 0 4.01 0.0 0 0 -0.0 0 0 0.0 0 10.77 0 0 0 0 0 -12.03 0 0 4.01 -0.0 0 0 0.0 0 0.0 0 0 -0.0 0 -0.0 0 0.0 0.0 -0.0 0 0.0 0 0.0 -0.0
0 0 0 0 0 0 0 -0.0 0 0 0.0 0 11.0 0 0 0 0 0 -12.38 0 0 4.13 0.0 0 0 -0.0 0 0 0.0 0 11.0 0 0 0 0 0 -12.38 0 0 4.13 -0.0 0 0 0.0 0 -0.0 0 0 -0.0 0 -0.0 0 0.0 0.0 -0.0 0 0.0 0 0.0 -0.0
0 0 0 0 0 0 0 -0.0 0 0 0.0 0 11.23 0 0 0 0 0 -12.72 0 0 4.24 0.0 0 0 -0.0 0 0 0.0 0 11.23 0 0 0 0 0 -12.72 0 0 4.24 -0.0 0 0 0.0 0 -0.0 0 0 -0.0 0 -0.0 0 0.0 0.0 -0.0 0 0.0 0 0.0 -0.0
0 0 0 0 0 0 0 -0.0 0 0 -0.0 0 11.46 0 0 0 0 0 -13.06 0 0 4.35 0.0 0 0 -0.0 0 0 0.0 0 11.46 0 0 0 0 0 -13.06 0 0 4.35 -0.0 0 0 0.0 0 -0.0 0 0 -0.0 0 -0.0 0 0.0 0.0 -0.0 0 0.0 0 0.0 -0.0
0 0 0 0 0 0 0 -0.0 0 0 0.0 0 11.69 0 0 0 0 0 -13.41 0 0 4.47 0.0 0 0 -0.0 0 0 0.0 0 11.69 0 0 0 0 0 -13.41 0 0 4.47 -0.0 0 0 0.0 0 -0.0 0 0 -0.0 0 -0.0 0 0.0 0.0 -0.0 0 0.0 0 0.0 -0.0
0 0 0 0 0 0 0 -0.0 0 0 0.0 0 11.91 0 0 0 0 0 -13.75 0 0 4.58 0.0 0 0 -0.0 0 0 0.0 0 11.91 0 0 0 0 0 -13.75 0 0 4.58 -0.0 0 0 0.0 0 -0.0 0 0 -0.0 0 -0.0 0 0.0 0.0 -0.0 0 0.0 0 0.0 -0.0
0 0 0 0 0 0 0 -0.0 0 0 -0.0 0 12.14 0 0 0 0 0 -14.09 0 0 4.7 0.0 0 0 -0.0 0 0 0.0 0 12.14 0 0 0 0 0 -14.09 0 0 4.7 -0.0 0 0 0.0 0 -0.0 0 0 -0.0 0 -0.0 0 0.0 0.0 -0.0 0 0.0 0 0.0 -0.0
0 0 0 0 0 0 0 -0.0 0 0 -0.0 0 12.37 0 0 0 0 0 -14.44 0 0 4.81 0.0 0 0 -0.0 0 0 0.0 0 12.37 0 0 0 0 0 -14.44 0 0 4.81 -0.0 0 0 0.0 0 -0.0 0 0 -0.0 0 -0.0 0 0.0 0.0 -0.0 0 0.0 0 0.0 -0.0
0 0 0 0 0 0 0 -0.0 0 0 -0.0 0 12.6 0 0 0 0 0 -14.78 0 0 4.93 0.0 0 0 -0.0 0 0 0.0 0 12.6 0 0 0 0 0 -14.78 0 0 4.93 -0.0 0 0 0.0 0 -0.0 0 0 -0.0 0 -0.0 0 0.0 0.0 -0.0 0 0.0 0 0.0 -0.0
0 0 0 0 0 0 0 -0.0 0 0 -0.0 0 12.83 0 0 0 0 0 -15.13 0 0 5.04 0.0 0 0 -0.0 0 0 0.0 0 12.83 0 0 0 0 0 -15.13 0 0 5.04 -0.0 0 0 0.0 0 -0.0 0 0 -0.0 0 -0.0 0 0.0 0.0 -0.0 0 0.0 0 0.0 -0.0
0 0 0 0 0 0 0 -0.0 0 0 0.0 0 13.06 0 0 0 0 0 -15.47 0 0 5.16 0.0 0 0 -0.0 0 0 0.0 0 13.06 0 0 0 0 0 -15.47 0 0 5.16 -0.0 0 0 0.0 0 -0.0 0 0 -0.0 0 -0.0 0 0.0 0.0 -0.0 0 0.0 0 0.0 -0.0
0 0 0 0 0 0 0 -0.0 0 0 0.0 0 13.29 0 0 0 0 0 -15.81 0 0 5.27 0.0 0 0 -0.0 0 0 0.0 0 13.29 0 0 0 0 0 -15.81 0 0 5.27 -0.0 0 0 0.0 0 -0.0 0 0 -0.0 0 -0.0 0 0.0 0.0 -0.0 0 0.0 0 0.0 -0.0
0 0 0 0 0 0 0 -0.0 0 0 0.0 0 13.52 0 0 0 0 0 -16.16 0 0 5.39 0.0 0 0 -0.0 0 0 0.0 0 13.52 0 0 0 0 0 -16.16 0 0 5.39 -0.0 0 0 -0.0 0 -0.0 0 0 -0.0 0 -0.0 0 0.0 0.0 -0.0 0 0.0 0 0.0 -0.0
0 0 0 0 0 0 0 -0.0 0 0 0.0 0 13.75 0 0 0 0 0 -16.5 0 0 5.5 0.0 0 0 -0.0 0 0 0.0 0 13.75 0 0 0 0 0 -16.5 0 0 5.5 -0.0 0 0 0.0 0 -0.0 0 0 -0.0 0 -0.0 0 0.0 0.0 -0.0 0 0.0 0 0.0 -0.0
